# xmcd
#
# Track frame offsets: 
#        183
#        11175
#        25038
#        37593
#        58738
#        69620
#        78283
#        93965
#        102378
#        117310
#        132578
#        143783
#        150513
#        164878
#        175433
#        187320
#        197725
#
# Disc length: 2726 seconds
#
# Revision: 7
# Processed by: cddbd v1.5.2PL0 Copyright (c) Steve Scherf et al.
# Submitted via: ExactAudioCopy v0.99pb5
#
DISCID=f00aa411
DTITLE=Astrud Gilberto - Look To The Rainbow
DYEAR=1967
DGENRE=Bosa Nova
TTITLE0=Berimbau
TTITLE1=Once Upon A Summertime
TTITLE2=Felicidade
TTITLE3=I Will Wait For You
TTITLE4=Frevo
TTITLE5=Maria Quiet (Maria Moite)
TTITLE6=Look To The Rainbow
TTITLE7=Bim Bom
TTITLE8=Lugar Bonita (Pretty Place)
TTITLE9=El Preciso Aprender A Ser So (Learn To Live Alone)
TTITLE10=She's A Carioca
TTITLE11=A Certain Smile
TTITLE12=A Certain Sadness
TTITLE13=Nega Do Cabelo Duro
TTITLE14=So Nice (Summer Samba)
TTITLE15=Voce Ja Foi A Bahia
TTITLE16=Portuguese Washerwoman
EXTD=YEAR: 1967
EXTT0=
EXTT1=
EXTT2=
EXTT3=
EXTT4=
EXTT5=
EXTT6=
EXTT7=
EXTT8=
EXTT9=
EXTT10=
EXTT11=
EXTT12=
EXTT13=
EXTT14=
EXTT15=
EXTT16=
PLAYORDER=
